HIERARCHY
ROOT hip
{
  OFFSET 0 0 0
  CHANNELS 6 Xposition Yposition Zposition Zrotation Yrotation Xrotation
  JOINT abdomen
  {
    OFFSET 0 20.6881 -0.73152
    CHANNELS 3 Zrotation Xrotation Yrotation
    JOINT chest
    {
      OFFSET 0 11.7043 -0.48768
      CHANNELS 3 Zrotation Xrotation Yrotation
      JOINT neck
      {
        OFFSET 0 22.1894 -2.19456
        CHANNELS 3 Zrotation Xrotation Yrotation
        JOINT head
        {
          OFFSET -0.24384 7.07133 1.2192
          CHANNELS 3 Zrotation Xrotation Yrotation
          JOINT leftEye
          {
            OFFSET 4.14528 8.04674 8.04672
            CHANNELS 3 Zrotation Xrotation Yrotation
            End Site
            {
              OFFSET 1 0 0
            }
          }
          JOINT rightEye
          {
            OFFSET -3.6576 8.04674 8.04672
            CHANNELS 3 Zrotation Xrotation Yrotation
            End Site
            {
              OFFSET 1 0 0
            }
          }
        }
      }
      JOINT rCollar
      {
        OFFSET -2.68224 19.2634 -4.8768
        CHANNELS 3 Zrotation Xrotation Yrotation
        JOINT rShldr
        {
          OFFSET -8.77824 -1.95073 1.46304
          CHANNELS 3 Zrotation Xrotation Yrotation
          JOINT rForeArm
          {
            OFFSET -28.1742 -1.7115 0.48768
            CHANNELS 3 Zrotation Xrotation Yrotation
            JOINT rHand
            {
              OFFSET -22.5879 0.773209 7.07136
              CHANNELS 3 Zrotation Xrotation Yrotation
              JOINT rThumb1
              {
                OFFSET -1.2192 -0.487915 3.41376
                CHANNELS 3 Zrotation Xrotation Yrotation
                JOINT rThumb2
                {
                  OFFSET -3.37035 -0.52449 3.41376
                  CHANNELS 3 Zrotation Xrotation Yrotation
                  End Site
                  {
                    OFFSET -1.78271 -1.18214 1.43049
                  }
                }
              }
              JOINT rIndex1
              {
                OFFSET -7.75947 0.938293 5.60832
                CHANNELS 3 Zrotation Xrotation Yrotation
                JOINT rIndex2
                {
                  OFFSET -2.54057 -0.884171 1.56538
                  CHANNELS 3 Zrotation Xrotation Yrotation
                  End Site
                  {
                    OFFSET -1.62519 -0.234802 1.16502
                  }
                }
              }
              JOINT rMid1
              {
                OFFSET -8.24714 1.18213 3.41376
                CHANNELS 3 Zrotation Xrotation Yrotation
                JOINT rMid2
                {
                  OFFSET -3.10165 -0.590103 1.0647
                  CHANNELS 3 Zrotation Xrotation Yrotation
                  End Site
                  {
                    OFFSET -2.48547 -0.328903 0.83742
                  }
                }
              }
              JOINT rRing1
              {
                OFFSET -8.82822 0.546677 1.51678
                CHANNELS 3 Zrotation Xrotation Yrotation
                JOINT rRing2
                {
                  OFFSET -2.60934 -0.819778 -0.0198488
                  CHANNELS 3 Zrotation Xrotation Yrotation
                  End Site
                  {
                    OFFSET -2.33842 -0.294052 0.168128
                  }
                }
              }
              JOINT rPinky1
              {
                OFFSET -8.27202 -0.0477905 -0.4584
                CHANNELS 3 Zrotation Xrotation Yrotation
                JOINT rPinky2
                {
                  OFFSET -1.82734 -0.647385 -0.700984
                  CHANNELS 3 Zrotation Xrotation Yrotation
                  End Site
                  {
                    OFFSET -1.69225 -0.51767 -0.607171
                  }
                }
              }
            }
          }
        }
      }
      JOINT lCollar
      {
        OFFSET 2.68224 19.2634 -4.8768
        CHANNELS 3 Zrotation Xrotation Yrotation
        JOINT lShldr
        {
          OFFSET 8.77824 -1.95073 1.46304
          CHANNELS 3 Zrotation Xrotation Yrotation
          JOINT lForeArm
          {
            OFFSET 28.1742 -1.7115 0.48768
            CHANNELS 3 Zrotation Xrotation Yrotation
            JOINT lHand
            {
              OFFSET 22.5879 0.773209 7.07136
              CHANNELS 3 Zrotation Xrotation Yrotation
              JOINT lThumb1
              {
                OFFSET 1.2192 -0.487915 3.41376
                CHANNELS 3 Zrotation Xrotation Yrotation
                JOINT lThumb2
                {
                  OFFSET 3.37035 -0.52449 3.41376
                  CHANNELS 3 Zrotation Xrotation Yrotation
                  End Site
                  {
                    OFFSET 1.78271 -1.18214 1.43049
                  }
                }
              }
              JOINT lIndex1
              {
                OFFSET 7.75947 0.938293 5.60832
                CHANNELS 3 Zrotation Xrotation Yrotation
                JOINT lIndex2
                {
                  OFFSET 2.54057 -0.884171 1.56538
                  CHANNELS 3 Zrotation Xrotation Yrotation
                  End Site
                  {
                    OFFSET 1.62519 -0.234802 1.16502
                  }
                }
              }
              JOINT lMid1
              {
                OFFSET 8.24714 1.18213 3.41376
                CHANNELS 3 Zrotation Xrotation Yrotation
                JOINT lMid2
                {
                  OFFSET 3.10165 -0.590103 1.0647
                  CHANNELS 3 Zrotation Xrotation Yrotation
                  End Site
                  {
                    OFFSET 2.48547 -0.328903 0.83742
                  }
                }
              }
              JOINT lRing1
              {
                OFFSET 8.82822 0.546677 1.51678
                CHANNELS 3 Zrotation Xrotation Yrotation
                JOINT lRing2
                {
                  OFFSET 2.60934 -0.819778 -0.0198488
                  CHANNELS 3 Zrotation Xrotation Yrotation
                  End Site
                  {
                    OFFSET 2.33842 -0.294052 0.168128
                  }
                }
              }
              JOINT lPinky1
              {
                OFFSET 8.27202 -0.0477905 -0.4584
                CHANNELS 3 Zrotation Xrotation Yrotation
                JOINT lPinky2
                {
                  OFFSET 1.82734 -0.647385 -0.700984
                  CHANNELS 3 Zrotation Xrotation Yrotation
                  End Site
                  {
                    OFFSET 1.69225 -0.51767 -0.607171
                  }
                }
              }
            }
          }
        }
      }
    }
  }
  JOINT rButtock
  {
    OFFSET -8.77824 4.35084 1.2192
    CHANNELS 3 Zrotation Xrotation Yrotation
    JOINT rThigh
    {
      OFFSET 0 -1.70687 -2.19456
      CHANNELS 3 Zrotation Xrotation Yrotation
      JOINT rShin
      {
        OFFSET 0 -36.8199 0.73152
        CHANNELS 3 Zrotation Xrotation Yrotation
        JOINT rFoot
        {
          OFFSET 0.73152 -45.1104 -5.12064
          CHANNELS 3 Zrotation Xrotation Yrotation
          End Site
          {
            OFFSET -1.1221 -3.69964 12.103
          }
        }
      }
    }
  }
  JOINT lButtock
  {
    OFFSET 8.77824 4.35084 1.2192
    CHANNELS 3 Zrotation Xrotation Yrotation
    JOINT lThigh
    {
      OFFSET 0 -1.70687 -2.19456
      CHANNELS 3 Zrotation Xrotation Yrotation
      JOINT lShin
      {
        OFFSET 0 -36.8199 0.73152
        CHANNELS 3 Zrotation Xrotation Yrotation
        JOINT lFoot
        {
          OFFSET -0.73152 -45.1104 -5.12064
          CHANNELS 3 Zrotation Xrotation Yrotation
          End Site
          {
            OFFSET 1.1221 -3.69964 12.103
          }
        }
      }
    }
  }
}
MOTION
Frames:	6
Frame Time:	0.00833333
26.0811 83.9958 -151.07 0.0 0.0 0.0 -1.70023 -0.0027635 -0.0463332 -0.469055 0.00196677 -0.0812261 8.15745e-15 -7.95139e-16 2.48481e-16 2.4466e-14 3.18055e-15 7.45443e-16 -0.0 0.0 0.0 -0.0 0.0 0.0 4.02399e-15 -3.64956e-17 1.98785e-16 8.86649e-14 -5.40446e-16 3.97569e-15 1.46624e-12 -4.68535e-13 1.27222e-14 1.68637e-11 3.08762e-13 4.99347e-13 3.97685e-11 -3.51902e-13 1.10365e-12 6.86773e-11 -6.07486e-13 1.87653e-12 3.97748e-11 -3.49463e-13 1.09093e-12 7.73091 5.47488 0.417314 3.97705e-11 -3.50954e-13 1.09411e-12 2.90554 0.965183 0.102902 3.97782e-11 -3.51253e-13 1.08695e-12 10.2786 0.731801 0.0259123 3.97673e-11 -3.52246e-13 1.08775e-12 2.22167 -0.733487 -0.20892 4.12646e-15 -3.68839e-17 9.93923e-17 8.27367e-14 -6.4605e-16 1.39149e-15 1.47692e-12 4.1546e-13 4.13472e-14 1.68657e-11 -5.78513e-13 4.54819e-13 3.97928e-11 -3.55785e-13 1.07821e-12 6.87326e-11 -6.17028e-13 1.87732e-12 3.97836e-11 -3.52246e-13 1.08457e-12 -7.73091 5.47488 -0.417314 3.97921e-11 -3.55228e-13 1.08139e-12 -2.90554 0.965183 -0.102902 3.97788e-11 -3.55029e-13 1.08775e-12 -10.2786 0.731801 -0.0259123 3.97905e-11 -3.55825e-13 1.08775e-12 -2.22167 -0.733487 0.20892 -2.03217e-16 0.0 -3.88251e-19 -0.815089 -1.92421 -0.00353528 -0.00895575 -2.0786 -0.0737851 -0.474699 3.99777 0.134783 2.03217e-16 0.0 3.88251e-19 -1.77342 -6.8476 0.169524 -0.0032677 6.83973 -0.0864442 0.50454 0.00293457 -0.0573369
26.1896 83.0493 -150.063 0.1943 0.8434 -2.0604 -1.18636 3.52928 -1.21916 0.480623 -1.36653 -0.353284 -0.287878 -1.76712 -0.829618 -0.0552119 -0.364566 -1.52473 -0.0 0.0 0.0 -0.0 0.0 0.0 9.22642e-15 2.699e-14 -1.90072e-14 22.7546 -1.04123 0.385525 -2.86351 -1.11323 4.6559 0.0197732 3.1229 0.43655 4.50647e-11 -2.3837e-10 -5.69622e-10 7.22782e-11 -4.10915e-10 -9.852e-10 4.50701e-11 -2.38368e-10 -5.6963e-10 7.73091 5.47488 0.417314 4.50662e-11 -2.38369e-10 -5.69629e-10 2.90554 0.965183 0.102902 4.5073e-11 -2.3837e-10 -5.69633e-10 10.2786 0.731801 0.0259123 4.50636e-11 -2.3837e-10 -5.69633e-10 2.22167 -0.733487 -0.20892 9.28912e-15 2.69886e-14 -1.91144e-14 -20.6342 7.68932 -2.32132 4.62017 -2.18558 -7.12021 -0.00765102 -1.9405 0.272155 -2.74773e-11 2.60421e-10 1.008e-10 -4.73755e-11 4.50898e-10 1.7389e-10 -2.74856e-11 2.60423e-10 1.00809e-10 -7.73091 5.47488 -0.417314 -2.74778e-11 2.6042e-10 1.00805e-10 -2.90554 0.965183 -0.102902 -2.74881e-11 2.6042e-10 1.00808e-10 -10.2786 0.731801 -0.0259123 -2.74771e-11 2.6042e-10 1.00807e-10 -2.22167 -0.733487 0.20892 -2.03217e-16 0.0 -3.88251e-19 0.123534 -9.71826 1.09265 -0.0119045 6.3862 0.0331819 -0.498226 3.41734 -0.698974 2.03217e-16 0.0 3.88251e-19 -2.41524 -4.11341 -0.740426 -0.0445047 15.5267 -0.296425 0.492662 4.74568 -4.22656
25.978 83.1825 -148.97 -0.1767 0.7762 -2.1031 -0.517619 7.25247 -2.4787 1.47864 -2.82018 -0.64404 -0.649228 -3.64187 -1.70521 -0.138655 -0.746446 -3.12816 -0.0 0.0 0.0 -0.0 0.0 0.0 1.48361e-14 5.67876e-14 -3.98687e-14 46.8201 -2.15788 0.794033 -5.69422 -2.26534 9.58279 -0.0114447 6.43924 0.90457 4.95812e-11 -4.94532e-10 -1.20252e-09 7.39283e-11 -8.52439e-10 -2.07979e-09 4.95857e-11 -4.9453e-10 -1.20252e-09 7.73091 5.47488 0.417314 4.95823e-11 -4.94532e-10 -1.20252e-09 2.90554 0.965183 0.102902 4.9588e-11 -4.94532e-10 -1.20252e-09 10.2786 0.731801 0.0259123 4.95802e-11 -4.94532e-10 -1.20252e-09 2.22167 -0.733487 -0.20892 1.48583e-14 5.67852e-14 -3.99806e-14 -41.7449 15.7657 -4.93082 8.91875 -4.38367 -14.6806 0.00434641 -3.99 0.560656 -1.03292e-10 5.47152e-10 2.13957e-10 -1.78254e-10 9.4733e-10 3.69088e-10 -1.03299e-10 5.47153e-10 2.13969e-10 -7.73091 5.47488 -0.417314 -1.03292e-10 5.47149e-10 2.13965e-10 -2.90554 0.965183 -0.102902 -1.03299e-10 5.47149e-10 2.13964e-10 -10.2786 0.731801 -0.0259123 -1.03289e-10 5.4715e-10 2.13961e-10 -2.22167 -0.733487 0.20892 -2.03217e-16 0.0 -3.88251e-19 1.41302 -17.9737 2.32143 -0.0491372 15.3082 0.153408 -0.541535 2.81764 -1.5751 2.03217e-16 0.0 3.88251e-19 -3.04296 -1.14023 -1.71932 -0.0123241 24.5909 -0.545627 1.21607 9.52449 -8.65802
25.8428 83.2047 -147.961 -0.0966 0.7385 -2.1676 0.281296 10.5751 -3.61942 2.3409 -4.10311 -0.899405 -1.01766 -5.29691 -2.49835 -0.223786 -1.0906 -4.57492 -0.0 0.0 0.0 -0.0 0.0 0.0 1.96313e-14 8.10429e-14 -5.74193e-14 68.3057 -3.12311 1.1581 -8.05301 -3.2516 13.988 -0.0850741 9.36652 1.32538 5.5657e-11 -7.14406e-10 -1.71107e-09 7.948e-11 -1.23153e-09 -2.95935e-09 5.56608e-11 -7.14405e-10 -1.71107e-09 7.73091 5.47488 0.417314 5.56578e-11 -7.14406e-10 -1.71108e-09 2.90554 0.965183 0.102902 5.56626e-11 -7.14407e-10 -1.71107e-09 10.2786 0.731801 0.0259123 5.56562e-11 -7.14406e-10 -1.71107e-09 2.22167 -0.733487 -0.20892 1.96145e-14 8.10396e-14 -5.7542e-14 -59.9028 22.9099 -7.49558 12.265 -6.15257 -21.4748 0.0325934 -5.82099 0.820227 -1.62018e-10 7.81975e-10 3.00244e-10 -2.79592e-10 1.35393e-09 5.17915e-10 -1.62024e-10 7.81975e-10 3.00259e-10 -7.73091 5.47488 -0.417314 -1.62018e-10 7.81971e-10 3.00254e-10 -2.90554 0.965183 -0.102902 -1.62022e-10 7.81971e-10 3.0025e-10 -10.2786 0.731801 -0.0259123 -1.62012e-10 7.81972e-10 3.00246e-10 -2.22167 -0.733487 0.20892 -2.03217e-16 0.0 -3.88251e-19 2.97735 -25.2683 3.58099 -0.118279 23.3156 0.268312 -0.595994 2.2553 -2.36394 2.03217e-16 0.0 3.88251e-19 -3.4388 1.35266 -2.5529 0.0988154 32.8987 -0.816034 2.57416 13.9235 -12.9069
25.718 83.2273 -146.923 -0.1628 0.8949 -2.3075 1.09134 12.9139 -4.41112 2.8923 -4.95966 -1.06433 -1.29499 -6.40683 -3.07623 -0.273345 -1.34325 -5.62928 -0.0 0.0 0.0 -0.0 0.0 0.0 2.23902e-14 9.14425e-14 -6.66923e-14 83.311 -3.71034 1.40951 -9.6087 -3.907 17.0698 -0.159884 11.3233 1.61265 6.56312e-11 -8.43561e-10 -1.90877e-09 9.47857e-11 -1.45454e-09 -3.30135e-09 6.56343e-11 -8.4356e-10 -1.90877e-09 7.73091 5.47488 0.417314 6.56318e-11 -8.43561e-10 -1.90877e-09 2.90554 0.965183 0.102902 6.56362e-11 -8.43561e-10 -1.90877e-09 10.2786 0.731801 0.0259123 6.56305e-11 -8.4356e-10 -1.90877e-09 2.22167 -0.733487 -0.20892 2.23379e-14 9.14384e-14 -6.68413e-14 -72.1471 27.877 -9.44168 14.3419 -7.23368 -26.2446 0.0623376 -7.1062 1.00391 -1.7802e-10 8.8703e-10 3.19356e-10 -3.07076e-10 1.53594e-09 5.50815e-10 -1.78026e-10 8.87028e-10 3.19372e-10 -7.73091 5.47488 -0.417314 -1.7802e-10 8.87026e-10 3.19366e-10 -2.90554 0.965183 -0.102902 -1.78023e-10 8.87025e-10 3.19361e-10 -10.2786 0.731801 -0.0259123 -1.78014e-10 8.87027e-10 3.19356e-10 -2.22167 -0.733487 0.20892 -2.03217e-16 0.0 -3.88251e-19 4.52263 -30.1952 4.64634 -0.191551 29.0367 0.347077 -0.645034 1.78693 -2.93605 2.03217e-16 0.0 3.88251e-19 -3.45912 2.64938 -3.02047 0.248676 39.3174 -1.06047 4.20366 17.6154 -16.4413
25.5919 83.3868 -145.907 -0.2869 1.0249 -2.4834 1.76995 13.8629 -4.70642 3.02895 -5.2134 -1.11036 -1.41108 -6.64831 -3.34901 -0.249483 -1.54424 -6.13392 -0.0 0.0 0.0 -0.0 0.0 0.0 2.01525e-14 8.20155e-14 -6.42428e-14 89.2219 -3.72252 1.45689 -10.2085 -4.16088 18.2983 -0.18746 11.8753 1.69508 1.2245e-10 -8.43281e-10 -1.68164e-09 1.95144e-10 -1.45481e-09 -2.90903e-09 1.22452e-10 -8.4328e-10 -1.68164e-09 7.73091 5.47488 0.417314 1.2245e-10 -8.43282e-10 -1.68164e-09 2.90554 0.965183 0.102902 1.22455e-10 -8.43282e-10 -1.68163e-09 10.2786 0.731801 0.0259123 1.22449e-10 -8.43281e-10 -1.68163e-09 2.22167 -0.733487 -0.20892 2.00632e-14 8.20108e-14 -6.44482e-14 -76.9227 29.8886 -10.0646 15.1095 -7.62299 -28.137 0.0769415 -7.64348 1.08113 -8.50676e-11 8.81536e-10 2.65432e-10 -1.46182e-10 1.52657e-09 4.57884e-10 -8.5072e-11 8.81535e-10 2.65447e-10 -7.73091 5.47488 -0.417314 -8.50668e-11 8.81533e-10 2.65439e-10 -2.90554 0.965183 -0.102902 -8.5071e-11 8.81533e-10 2.65437e-10 -10.2786 0.731801 -0.0259123 -8.50606e-11 8.81534e-10 2.65432e-10 -2.22167 -0.733487 0.20892 -2.03217e-16 0.0 -3.88251e-19 5.65273 -31.8307 5.21991 -0.230743 31.5707 0.354555 -0.671805 1.45825 -3.21404 2.03217e-16 0.0 3.88251e-19 -3.028 2.29974 -2.96895 0.359588 43.1031 -1.20495 5.65271 20.4678 -18.8899
